<mxfile host="app.diagrams.net" modified="2024-02-19T12:10:45.539Z" agent="Mozilla/5.0 (Macintosh; Intel Mac OS X 10_15_7) AppleWebKit/537.36 (KHTML, like Gecko) Chrome/121.0.0.0 Safari/537.36 Edg/121.0.0.0" etag="BnVrHjR6ZDWOpiUaJpy2" version="22.1.13" type="github">
  <diagram name="第 1 页" id="fCA8_PMctPCgwvYJMUSU">
    <mxGraphModel dx="944" dy="583" grid="1" gridSize="10" guides="1" tooltips="1" connect="1" arrows="1" fold="1" page="1" pageScale="1" pageWidth="4681" pageHeight="3300" math="1" shadow="0">
      <root>
        <mxCell id="0" />
        <mxCell id="1" parent="0" />
        <mxCell id="P_II87GhfvFhkmxFU4Ft-12" style="shape=connector;rounded=0;orthogonalLoop=1;jettySize=auto;html=1;exitX=0;exitY=1;exitDx=0;exitDy=0;entryX=0.5;entryY=0;entryDx=0;entryDy=0;labelBackgroundColor=default;strokeColor=default;align=center;verticalAlign=middle;fontFamily=Helvetica;fontSize=11;fontColor=default;endArrow=none;endFill=0;" edge="1" parent="1" source="P_II87GhfvFhkmxFU4Ft-1" target="P_II87GhfvFhkmxFU4Ft-3">
          <mxGeometry relative="1" as="geometry" />
        </mxCell>
        <mxCell id="P_II87GhfvFhkmxFU4Ft-13" style="edgeStyle=none;shape=connector;rounded=0;orthogonalLoop=1;jettySize=auto;html=1;exitX=0.5;exitY=1;exitDx=0;exitDy=0;entryX=0.5;entryY=0;entryDx=0;entryDy=0;labelBackgroundColor=default;strokeColor=default;align=center;verticalAlign=middle;fontFamily=Helvetica;fontSize=11;fontColor=default;endArrow=none;endFill=0;" edge="1" parent="1" source="P_II87GhfvFhkmxFU4Ft-1" target="P_II87GhfvFhkmxFU4Ft-5">
          <mxGeometry relative="1" as="geometry" />
        </mxCell>
        <mxCell id="P_II87GhfvFhkmxFU4Ft-14" style="edgeStyle=none;shape=connector;rounded=0;orthogonalLoop=1;jettySize=auto;html=1;exitX=1;exitY=1;exitDx=0;exitDy=0;entryX=0.5;entryY=0;entryDx=0;entryDy=0;labelBackgroundColor=default;strokeColor=default;align=center;verticalAlign=middle;fontFamily=Helvetica;fontSize=11;fontColor=default;endArrow=none;endFill=0;" edge="1" parent="1" source="P_II87GhfvFhkmxFU4Ft-1" target="P_II87GhfvFhkmxFU4Ft-7">
          <mxGeometry relative="1" as="geometry" />
        </mxCell>
        <mxCell id="P_II87GhfvFhkmxFU4Ft-1" value="U" style="ellipse;whiteSpace=wrap;html=1;aspect=fixed;" vertex="1" parent="1">
          <mxGeometry x="260" y="80" width="40" height="40" as="geometry" />
        </mxCell>
        <mxCell id="P_II87GhfvFhkmxFU4Ft-2" value="User" style="text;html=1;strokeColor=none;fillColor=none;align=center;verticalAlign=middle;whiteSpace=wrap;rounded=0;" vertex="1" parent="1">
          <mxGeometry x="250" y="50" width="60" height="30" as="geometry" />
        </mxCell>
        <mxCell id="P_II87GhfvFhkmxFU4Ft-9" style="edgeStyle=orthogonalEdgeStyle;rounded=0;orthogonalLoop=1;jettySize=auto;html=1;exitX=1;exitY=0.5;exitDx=0;exitDy=0;entryX=0;entryY=0.5;entryDx=0;entryDy=0;endArrow=none;endFill=0;" edge="1" parent="1" source="P_II87GhfvFhkmxFU4Ft-3" target="P_II87GhfvFhkmxFU4Ft-5">
          <mxGeometry relative="1" as="geometry" />
        </mxCell>
        <mxCell id="P_II87GhfvFhkmxFU4Ft-3" value="$$A_1$$" style="ellipse;whiteSpace=wrap;html=1;aspect=fixed;" vertex="1" parent="1">
          <mxGeometry x="170" y="180" width="40" height="40" as="geometry" />
        </mxCell>
        <mxCell id="P_II87GhfvFhkmxFU4Ft-4" value="Product" style="text;html=1;strokeColor=none;fillColor=none;align=center;verticalAlign=middle;whiteSpace=wrap;rounded=0;" vertex="1" parent="1">
          <mxGeometry x="160" y="220" width="60" height="30" as="geometry" />
        </mxCell>
        <mxCell id="P_II87GhfvFhkmxFU4Ft-10" style="edgeStyle=orthogonalEdgeStyle;shape=connector;rounded=0;orthogonalLoop=1;jettySize=auto;html=1;exitX=1;exitY=0.5;exitDx=0;exitDy=0;entryX=0;entryY=0.5;entryDx=0;entryDy=0;labelBackgroundColor=default;strokeColor=default;align=center;verticalAlign=middle;fontFamily=Helvetica;fontSize=11;fontColor=default;endArrow=none;endFill=0;" edge="1" parent="1" source="P_II87GhfvFhkmxFU4Ft-5" target="P_II87GhfvFhkmxFU4Ft-7">
          <mxGeometry relative="1" as="geometry" />
        </mxCell>
        <mxCell id="P_II87GhfvFhkmxFU4Ft-5" value="$$A_2$$" style="ellipse;whiteSpace=wrap;html=1;aspect=fixed;" vertex="1" parent="1">
          <mxGeometry x="260" y="180" width="40" height="40" as="geometry" />
        </mxCell>
        <mxCell id="P_II87GhfvFhkmxFU4Ft-6" value="Product" style="text;html=1;strokeColor=none;fillColor=none;align=center;verticalAlign=middle;whiteSpace=wrap;rounded=0;" vertex="1" parent="1">
          <mxGeometry x="250" y="220" width="60" height="30" as="geometry" />
        </mxCell>
        <mxCell id="P_II87GhfvFhkmxFU4Ft-7" value="$$A_3$$" style="ellipse;whiteSpace=wrap;html=1;aspect=fixed;" vertex="1" parent="1">
          <mxGeometry x="350" y="180" width="40" height="40" as="geometry" />
        </mxCell>
        <mxCell id="P_II87GhfvFhkmxFU4Ft-8" value="Product" style="text;html=1;strokeColor=none;fillColor=none;align=center;verticalAlign=middle;whiteSpace=wrap;rounded=0;" vertex="1" parent="1">
          <mxGeometry x="340" y="220" width="60" height="30" as="geometry" />
        </mxCell>
      </root>
    </mxGraphModel>
  </diagram>
</mxfile>
